<svg width="143" height="54" viewBox="0 0 143 54" fill="none" xmlns="http://www.w3.org/2000/svg">
<g clip-path="url(#clip0_1_9)">
<path d="M8.42 16.24C7.31333 16.24 6.29333 16.0667 5.36 15.72C4.44 15.36 3.63333 14.8533 2.94 14.2C2.26 13.5467 1.72667 12.78 1.34 11.9C0.966667 11.02 0.78 10.0533 0.78 9C0.78 7.94667 0.966667 6.98 1.34 6.1C1.72667 5.22 2.26667 4.45333 2.96 3.8C3.65333 3.14667 4.46667 2.64667 5.4 2.3C6.33333 1.94 7.36 1.76 8.48 1.76C9.72 1.76 10.8333 1.96667 11.82 2.38C12.82 2.79333 13.66 3.39333 14.34 4.18L12.26 6.1C11.7533 5.56667 11.2 5.17333 10.6 4.92C10 4.65333 9.34667 4.52 8.64 4.52C7.96 4.52 7.34 4.62667 6.78 4.84C6.22 5.05333 5.73333 5.36 5.32 5.76C4.92 6.16 4.60667 6.63333 4.38 7.18C4.16667 7.72667 4.06 8.33333 4.06 9C4.06 9.65333 4.16667 10.2533 4.38 10.8C4.60667 11.3467 4.92 11.8267 5.32 12.24C5.73333 12.64 6.21333 12.9467 6.76 13.16C7.32 13.3733 7.93333 13.48 8.6 13.48C9.24 13.48 9.86 13.38 10.46 13.18C11.0733 12.9667 11.6667 12.6133 12.24 12.12L14.08 14.46C13.32 15.0333 12.4333 15.4733 11.42 15.78C10.42 16.0867 9.42 16.24 8.42 16.24ZM11.12 14.04V8.78H14.08V14.46L11.12 14.04ZM17.0897 16V2H23.1497C24.403 2 25.483 2.20667 26.3897 2.62C27.2964 3.02 27.9964 3.6 28.4897 4.36C28.983 5.12 29.2297 6.02667 29.2297 7.08C29.2297 8.12 28.983 9.02 28.4897 9.78C27.9964 10.5267 27.2964 11.1 26.3897 11.5C25.483 11.9 24.403 12.1 23.1497 12.1H18.8897L20.3297 10.68V16H17.0897ZM25.9897 16L22.4897 10.92H25.9497L29.4897 16H25.9897ZM20.3297 11.04L18.8897 9.52H22.9697C23.9697 9.52 24.7164 9.30667 25.2097 8.88C25.703 8.44 25.9497 7.84 25.9497 7.08C25.9497 6.30667 25.703 5.70667 25.2097 5.28C24.7164 4.85333 23.9697 4.64 22.9697 4.64H18.8897L20.3297 3.1V11.04ZM34.7767 7.64H41.5167V10.16H34.7767V7.64ZM35.0167 13.4H42.6367V16H31.7967V2H42.3767V4.6H35.0167V13.4ZM48.1947 7.64H54.9347V10.16H48.1947V7.64ZM48.4347 13.4H56.0547V16H45.2147V2H55.7947V4.6H48.4347V13.4ZM58.6327 16V2H61.3127L69.5727 12.08H68.2727V2H71.4727V16H68.8127L60.5327 5.92H61.8327V16H58.6327Z" fill="#68C193"/>
<path d="M82.02 35L77.44 21H80.8L84.78 33.4H83.1L87.26 21H90.26L94.26 33.4H92.64L96.72 21H99.82L95.24 35H91.76L88.22 24.12H89.14L85.5 35H82.02ZM99.32 35L105.56 21H108.76L115.02 35H111.62L106.5 22.64H107.78L102.64 35H99.32ZM102.44 32L103.3 29.54H110.5L111.38 32H102.44ZM119.911 35L113.871 21H117.371L122.651 33.4H120.591L125.951 21H129.171L123.111 35H119.911ZM133.32 26.64H140.06V29.16H133.32V26.64ZM133.56 32.4H141.18V35H130.34V21H140.92V23.6H133.56V32.4Z" fill="#639BA2"/>
<path d="M3 48.5385V48.5385C4.89643 49.335 7.00794 49.4605 8.98538 48.8942L10.2451 48.5335C11.6554 48.1296 12.9854 47.4855 14.1767 46.6295L23.5108 39.9231L37.5753 29.4615L46.1689 24.047C48.2456 22.7386 50.475 21.6899 52.8072 20.9246L56.1492 19.8279C57.8205 19.2794 59.5683 19 61.3273 19H63.8176C65.4308 19 67.0089 19.4716 68.3576 20.3568L69.0079 20.7836C70.2776 21.6169 71.1986 22.8859 71.5973 24.3514V24.3514C71.9561 25.6701 71.8707 27.0702 71.3543 28.3355L70.9664 29.286C70.5871 30.2153 70.0372 31.0654 69.345 31.7922L68.4598 32.7219C68.1668 33.0295 67.6535 32.7657 67.733 32.3485L67.8503 31.7324C67.9775 31.0642 67.8455 30.3727 67.4809 29.7984V29.7984C67.0943 29.1895 66.4783 28.7626 65.7725 28.6143L65.0492 28.4624C64.3254 28.3104 63.5751 28.3421 62.8668 28.5546L61.5977 28.9354C60.439 29.2831 59.3561 29.8458 58.4058 30.5943L57.0242 31.6824C55.786 32.6576 54.7048 33.817 53.8184 35.1202L53.4181 35.7087C52.6298 36.8675 52.0594 38.1604 51.7348 39.5238L51.4943 40.534C51.2052 41.7483 51.2255 43.0158 51.5532 44.2203V44.2203C51.9891 45.8224 52.947 47.2333 54.2753 48.2296L54.6138 48.4835C55.7397 49.328 57.0539 49.8865 58.4433 50.111L61.0551 50.5329C62.9717 50.8426 64.9239 50.8631 66.8466 50.5939L68.3543 50.3828C71.2596 49.976 74.088 49.1385 76.7464 47.8978L83.2849 44.8462L90.9842 41.309C92.1006 40.796 93.2544 40.3686 94.4356 40.0303L96.0149 39.578C98.0564 38.9933 100.194 38.819 102.303 39.0651L102.748 39.117C103.832 39.2436 104.896 39.5103 105.912 39.9105V39.9105C107.981 40.725 109.798 42.0708 111.179 43.812L112 44.8462" stroke="url(#paint0_radial_1_9)" stroke-width="3"/>
</g>
<defs>
<radialGradient id="paint0_radial_1_9" cx="0" cy="0" r="1" gradientUnits="userSpaceOnUse" gradientTransform="translate(-9 19) rotate(16.7984) scale(110.725 377.157)">
<stop offset="0.117503" stop-color="#68C193"/>
<stop offset="1" stop-color="#639BA2"/>
</radialGradient>
<clipPath id="clip0_1_9">
<rect width="143" height="54" fill="white"/>
</clipPath>
</defs>
</svg>
